# xmcd CD database file
#
# Track frame offsets:
#	150
#	30828
#	57255
#	79092
#	99667
#	115568
#	138073
#	154211
#	193237
#	214473
#	246133
#	274376
#	298014
#	317718
#
# Disc length: 4733 seconds
#
# Revision: 0
# Processed by: cddbd v1.5.2PL0 Copyright (c) Steve Scherf et al.
# Submitted via: CDex 1.97
#
DISCID=c9127b0e
DTITLE=Various Artist - Boccaccio Life - The End Of An Era [CD2)
DYEAR=2018
DGENRE=New Beat
TTITLE0=D-Shake - Techno Trance (Paradise Is Now)
TTITLE1=Two Pieces - Magic Bells
TTITLE2=Indo Tribe - Owl (I Can See You Mix)
TTITLE3=Mephisto - Euphemia
TTITLE4=Ransom - My Dance
TTITLE5=Shades Of Rhythm - Sound Of Eden
TTITLE6=Rave 2001 - Seduce Me
TTITLE7=Photon Inc and Paula Brion - Generate Power
TTITLE8=Mackenzie - Higher In The Sky
TTITLE9=Peyote - Alcatraz
TTITLE10=State Of House - Pacific Dance
TTITLE11=Beyond - Bang
TTITLE12=Tranquil Voice - Acid India
TTITLE13=X-Press 2 - Music X Press (Original 1992)
EXTD=YEAR: 2018
EXTT0=
EXTT1=
EXTT2=
EXTT3=
EXTT4=
EXTT5=
EXTT6=
EXTT7=
EXTT8=
EXTT9=
EXTT10=
EXTT11=
EXTT12=
EXTT13=
PLAYORDER=
